HIERARCHY
ROOT hip
{
  OFFSET 0 0 0
  CHANNELS 6 Xposition Yposition Zposition Zrotation Yrotation Xrotation
  JOINT abdomen
  {
    OFFSET 0 20.6881 -0.73152
    CHANNELS 3 Zrotation Xrotation Yrotation
    JOINT chest
    {
      OFFSET 0 11.7043 -0.48768
      CHANNELS 3 Zrotation Xrotation Yrotation
      JOINT neck
      {
        OFFSET 0 22.1894 -2.19456
        CHANNELS 3 Zrotation Xrotation Yrotation
        JOINT head
        {
          OFFSET -0.24384 7.07133 1.2192
          CHANNELS 3 Zrotation Xrotation Yrotation
          JOINT leftEye
          {
            OFFSET 4.14528 8.04674 8.04672
            CHANNELS 3 Zrotation Xrotation Yrotation
            End Site
            {
              OFFSET 1 0 0
            }
          }
          JOINT rightEye
          {
            OFFSET -3.6576 8.04674 8.04672
            CHANNELS 3 Zrotation Xrotation Yrotation
            End Site
            {
              OFFSET 1 0 0
            }
          }
        }
      }
      JOINT rCollar
      {
        OFFSET -2.68224 19.2634 -4.8768
        CHANNELS 3 Zrotation Xrotation Yrotation
        JOINT rShldr
        {
          OFFSET -8.77824 -1.95073 1.46304
          CHANNELS 3 Zrotation Xrotation Yrotation
          JOINT rForeArm
          {
            OFFSET -28.1742 -1.7115 0.48768
            CHANNELS 3 Zrotation Xrotation Yrotation
            JOINT rHand
            {
              OFFSET -22.5879 0.773209 7.07136
              CHANNELS 3 Zrotation Xrotation Yrotation
              JOINT rThumb1
              {
                OFFSET -1.2192 -0.487915 3.41376
                CHANNELS 3 Zrotation Xrotation Yrotation
                JOINT rThumb2
                {
                  OFFSET -3.37035 -0.52449 3.41376
                  CHANNELS 3 Zrotation Xrotation Yrotation
                  End Site
                  {
                    OFFSET -1.78271 -1.18214 1.43049
                  }
                }
              }
              JOINT rIndex1
              {
                OFFSET -7.75947 0.938293 5.60832
                CHANNELS 3 Zrotation Xrotation Yrotation
                JOINT rIndex2
                {
                  OFFSET -2.54057 -0.884171 1.56538
                  CHANNELS 3 Zrotation Xrotation Yrotation
                  End Site
                  {
                    OFFSET -1.62519 -0.234802 1.16502
                  }
                }
              }
              JOINT rMid1
              {
                OFFSET -8.24714 1.18213 3.41376
                CHANNELS 3 Zrotation Xrotation Yrotation
                JOINT rMid2
                {
                  OFFSET -3.10165 -0.590103 1.0647
                  CHANNELS 3 Zrotation Xrotation Yrotation
                  End Site
                  {
                    OFFSET -2.48547 -0.328903 0.83742
                  }
                }
              }
              JOINT rRing1
              {
                OFFSET -8.82822 0.546677 1.51678
                CHANNELS 3 Zrotation Xrotation Yrotation
                JOINT rRing2
                {
                  OFFSET -2.60934 -0.819778 -0.0198488
                  CHANNELS 3 Zrotation Xrotation Yrotation
                  End Site
                  {
                    OFFSET -2.33842 -0.294052 0.168128
                  }
                }
              }
              JOINT rPinky1
              {
                OFFSET -8.27202 -0.0477905 -0.4584
                CHANNELS 3 Zrotation Xrotation Yrotation
                JOINT rPinky2
                {
                  OFFSET -1.82734 -0.647385 -0.700984
                  CHANNELS 3 Zrotation Xrotation Yrotation
                  End Site
                  {
                    OFFSET -1.69225 -0.51767 -0.607171
                  }
                }
              }
            }
          }
        }
      }
      JOINT lCollar
      {
        OFFSET 2.68224 19.2634 -4.8768
        CHANNELS 3 Zrotation Xrotation Yrotation
        JOINT lShldr
        {
          OFFSET 8.77824 -1.95073 1.46304
          CHANNELS 3 Zrotation Xrotation Yrotation
          JOINT lForeArm
          {
            OFFSET 28.1742 -1.7115 0.48768
            CHANNELS 3 Zrotation Xrotation Yrotation
            JOINT lHand
            {
              OFFSET 22.5879 0.773209 7.07136
              CHANNELS 3 Zrotation Xrotation Yrotation
              JOINT lThumb1
              {
                OFFSET 1.2192 -0.487915 3.41376
                CHANNELS 3 Zrotation Xrotation Yrotation
                JOINT lThumb2
                {
                  OFFSET 3.37035 -0.52449 3.41376
                  CHANNELS 3 Zrotation Xrotation Yrotation
                  End Site
                  {
                    OFFSET 1.78271 -1.18214 1.43049
                  }
                }
              }
              JOINT lIndex1
              {
                OFFSET 7.75947 0.938293 5.60832
                CHANNELS 3 Zrotation Xrotation Yrotation
                JOINT lIndex2
                {
                  OFFSET 2.54057 -0.884171 1.56538
                  CHANNELS 3 Zrotation Xrotation Yrotation
                  End Site
                  {
                    OFFSET 1.62519 -0.234802 1.16502
                  }
                }
              }
              JOINT lMid1
              {
                OFFSET 8.24714 1.18213 3.41376
                CHANNELS 3 Zrotation Xrotation Yrotation
                JOINT lMid2
                {
                  OFFSET 3.10165 -0.590103 1.0647
                  CHANNELS 3 Zrotation Xrotation Yrotation
                  End Site
                  {
                    OFFSET 2.48547 -0.328903 0.83742
                  }
                }
              }
              JOINT lRing1
              {
                OFFSET 8.82822 0.546677 1.51678
                CHANNELS 3 Zrotation Xrotation Yrotation
                JOINT lRing2
                {
                  OFFSET 2.60934 -0.819778 -0.0198488
                  CHANNELS 3 Zrotation Xrotation Yrotation
                  End Site
                  {
                    OFFSET 2.33842 -0.294052 0.168128
                  }
                }
              }
              JOINT lPinky1
              {
                OFFSET 8.27202 -0.0477905 -0.4584
                CHANNELS 3 Zrotation Xrotation Yrotation
                JOINT lPinky2
                {
                  OFFSET 1.82734 -0.647385 -0.700984
                  CHANNELS 3 Zrotation Xrotation Yrotation
                  End Site
                  {
                    OFFSET 1.69225 -0.51767 -0.607171
                  }
                }
              }
            }
          }
        }
      }
    }
  }
  JOINT rButtock
  {
    OFFSET -8.77824 4.35084 1.2192
    CHANNELS 3 Zrotation Xrotation Yrotation
    JOINT rThigh
    {
      OFFSET 0 -1.70687 -2.19456
      CHANNELS 3 Zrotation Xrotation Yrotation
      JOINT rShin
      {
        OFFSET 0 -36.8199 0.73152
        CHANNELS 3 Zrotation Xrotation Yrotation
        JOINT rFoot
        {
          OFFSET 0.73152 -45.1104 -5.12064
          CHANNELS 3 Zrotation Xrotation Yrotation
          End Site
          {
            OFFSET -1.1221 -3.69964 12.103
          }
        }
      }
    }
  }
  JOINT lButtock
  {
    OFFSET 8.77824 4.35084 1.2192
    CHANNELS 3 Zrotation Xrotation Yrotation
    JOINT lThigh
    {
      OFFSET 0 -1.70687 -2.19456
      CHANNELS 3 Zrotation Xrotation Yrotation
      JOINT lShin
      {
        OFFSET 0 -36.8199 0.73152
        CHANNELS 3 Zrotation Xrotation Yrotation
        JOINT lFoot
        {
          OFFSET -0.73152 -45.1104 -5.12064
          CHANNELS 3 Zrotation Xrotation Yrotation
          End Site
          {
            OFFSET 1.1221 -3.69964 12.103
          }
        }
      }
    }
  }
}
MOTION
Frames:	4
Frame Time:	0.00833333
3.96712 83.6339 -85.2036 -6.0716 4.3073 3.4536 11.3966 4.97804 -0.121825 2.7301 -1.6287 0.248707 -3.16299 -1.96725 -0.253574 0.440505 -5.59838 0.51065 -0.0 0.0 0.0 -0.0 0.0 0.0 1.76296e-13 -8.28441e-14 6.70836e-14 74.9826 -14.6559 0.616311 -7.49273 -2.75149 13.1764 -0.0243988 4.50118 0.633858 -2.68108e-09 -1.631e-10 2.51037e-10 -4.63398e-09 -2.80478e-10 4.45856e-10 -2.68108e-09 -1.63097e-10 2.5103e-10 7.73091 5.47488 0.417314 -2.68108e-09 -1.631e-10 2.51046e-10 2.90554 0.965183 0.102902 -2.68107e-09 -1.63101e-10 2.51042e-10 10.2786 0.731801 0.0259123 -2.68108e-09 -1.63098e-10 2.51046e-10 2.22167 -0.733487 -0.20892 1.76e-13 -8.2845e-14 6.68196e-14 -81.9857 26.0073 1.71217 18.6615 -11.4163 -35.521 0.00542102 2.0999 -0.295257 -2.52925e-09 -2.6641e-09 -1.13609e-09 -4.37411e-09 -4.60445e-09 -1.95843e-09 -2.52925e-09 -2.66409e-09 -1.13608e-09 -7.73091 5.47488 -0.417314 -2.52924e-09 -2.66409e-09 -1.13609e-09 -2.90554 0.965183 -0.102902 -2.52924e-09 -2.66409e-09 -1.13609e-09 -10.2786 0.731801 -0.0259123 -2.52924e-09 -2.66409e-09 -1.1361e-09 -2.22167 -0.733487 0.20892 -2.03217e-16 0.0 -3.88251e-19 12.4108 -13.2468 0.792454 0.00150809 25.056 0.397663 -2.3998 -13.5049 -6.72801 2.03217e-16 0.0 3.88251e-19 10.7634 -28.4054 1.85588 0.766177 54.0007 -1.15556 0.178458 -10.3577 -0.937737
3.89608 83.6254 -84.5946 -6.3637 4.4319 3.4818 11.3905 4.82133 -0.0257402 2.71091 -1.65444 0.264539 -3.15817 -1.9437 -0.315403 0.459559 -5.47792 0.3855 -0.0 0.0 0.0 -0.0 0.0 0.0 1.37196e-13 -1.6976e-13 2.32563e-14 74.9997 -14.1492 0.835218 -7.61406 -2.81268 13.3971 -0.0183912 3.88817 0.547265 -1.68733e-09 -8.18329e-10 1.41812e-09 -2.91116e-09 -1.41596e-09 2.45674e-09 -1.68733e-09 -8.18327e-10 1.41811e-09 7.73091 5.47488 0.417314 -1.68733e-09 -8.1833e-10 1.41813e-09 2.90554 0.965183 0.102902 -1.68732e-09 -8.1833e-10 1.41813e-09 10.2786 0.731801 0.0259123 -1.68733e-09 -8.18327e-10 1.41813e-09 2.22167 -0.733487 -0.20892 1.36938e-13 -1.69754e-13 2.3033e-14 -81.9619 26.2601 1.63963 18.8076 -11.5824 -35.8574 0.00464804 1.94794 -0.273872 -2.06013e-09 -2.64903e-09 -1.1194e-09 -3.56425e-09 -4.57918e-09 -1.93264e-09 -2.06013e-09 -2.64903e-09 -1.11939e-09 -7.73091 5.47488 -0.417314 -2.06012e-09 -2.64903e-09 -1.1194e-09 -2.90554 0.965183 -0.102902 -2.06011e-09 -2.64902e-09 -1.11939e-09 -10.2786 0.731801 -0.0259123 -2.06012e-09 -2.64903e-09 -1.11941e-09 -2.22167 -0.733487 0.20892 -2.03217e-16 0.0 -3.88251e-19 12.5351 -12.9029 0.893712 0.00403553 25.0429 0.428405 -2.47926 -13.7322 -6.8831 2.03217e-16 0.0 3.88251e-19 10.6355 -29.2577 1.7822 0.735043 53.3285 -1.13708 0.2888 -10.751 -0.549543
3.9451 83.5368 -84.0195 -5.954 4.2226 3.5636 11.4026 4.70833 0.00769379 2.65823 -1.72488 0.264495 -3.14166 -1.91387 -0.343191 0.518627 -5.34441 0.325645 -0.0 0.0 0.0 -0.0 0.0 0.0 9.70249e-14 -2.05152e-13 8.94531e-16 75.0559 -13.6431 1.00996 -7.74337 -2.8788 13.6324 -0.0132563 3.28538 0.462241 -1.01608e-09 -1.04329e-09 1.98744e-09 -1.74837e-09 -1.80612e-09 3.43661e-09 -1.01607e-09 -1.04329e-09 1.98744e-09 7.73091 5.47488 0.417314 -1.01608e-09 -1.04329e-09 1.98745e-09 2.90554 0.965183 0.102902 -1.01607e-09 -1.04329e-09 1.98745e-09 10.2786 0.731801 0.0259123 -1.01608e-09 -1.04328e-09 1.98745e-09 2.22167 -0.733487 -0.20892 9.67964e-14 -2.05141e-13 6.95746e-16 -81.912 26.4996 1.60608 18.9439 -11.7388 -36.1739 0.00400956 1.80773 -0.254145 -1.66094e-09 -2.48071e-09 -1.02239e-09 -2.87473e-09 -4.28882e-09 -1.76678e-09 -1.66094e-09 -2.48071e-09 -1.02238e-09 -7.73091 5.47488 -0.417314 -1.66094e-09 -2.48071e-09 -1.02239e-09 -2.90554 0.965183 -0.102902 -1.66092e-09 -2.4807e-09 -1.02239e-09 -10.2786 0.731801 -0.0259123 -1.66093e-09 -2.48071e-09 -1.02241e-09 -2.22167 -0.733487 0.20892 -2.03217e-16 0.0 -3.88251e-19 12.6888 -12.4994 0.990053 0.00677045 24.9824 0.457757 -2.57282 -13.9435 -7.09216 2.03217e-16 0.0 3.88251e-19 10.5067 -30.0566 1.64984 0.70328 52.6065 -1.11736 0.397249 -11.1365 -0.183679
3.83253 83.5092 -83.376 -6.3951 4.1305 3.478 11.4546 4.66028 -0.0577012 2.54768 -1.86494 0.239318 -3.10984 -1.88531 -0.310106 0.644116 -5.14694 0.384213 -0.0 0.0 0.0 -0.0 0.0 0.0 4.24684e-14 -1.57282e-13 1.28791e-14 75.178 -13.1259 1.12776 -7.88341 -2.95126 13.8874 -0.00844995 2.6749 0.376206 -7.81315e-10 -5.60702e-10 1.61304e-09 -1.34424e-09 -9.70712e-10 2.78849e-09 -7.81312e-10 -5.60701e-10 1.61303e-09 7.73091 5.47488 0.417314 -7.81316e-10 -5.60701e-10 1.61305e-09 2.90554 0.965183 0.102902 -7.8131e-10 -5.60702e-10 1.61305e-09 10.2786 0.731801 0.0259123 -7.81319e-10 -5.60699e-10 1.61305e-09 2.22167 -0.733487 -0.20892 4.22585e-14 -1.57271e-13 1.26807e-14 -81.8304 26.711 1.64469 19.074 -11.8899 -36.4769 0.00342212 1.66868 -0.234585 -1.30645e-09 -1.9917e-09 -7.67041e-10 -2.26169e-09 -3.44397e-09 -1.32536e-09 -1.30646e-09 -1.9917e-09 -7.67032e-10 -7.73091 5.47488 -0.417314 -1.30645e-09 -1.9917e-09 -7.67041e-10 -2.90554 0.965183 -0.102902 -1.30644e-09 -1.99169e-09 -7.67037e-10 -10.2786 0.731801 -0.0259123 -1.30644e-09 -1.9917e-09 -7.67052e-10 -2.22167 -0.733487 0.20892 -2.03217e-16 0.0 -3.88251e-19 12.8937 -12.018 1.07246 0.00993679 24.8793 0.485927 -2.69069 -14.1445 -7.38656 2.03217e-16 0.0 3.88251e-19 10.3843 -30.7912 1.43247 0.671463 51.8463 -1.09743 0.505135 -11.5517 0.166621
